<svg width="810" height="314" viewBox="0 0 810 314" fill="none" xmlns="http://www.w3.org/2000/svg">
<path fill-rule="evenodd" clip-rule="evenodd" d="M30 0C13.4315 0 0 13.4315 0 30V284C0 300.569 13.4314 314 30 314H646.959C654.689 314 662.121 311.016 667.705 305.67L800.364 178.67C812.703 166.858 812.703 147.142 800.364 135.33L667.705 8.32961C662.121 2.98393 654.689 0 646.959 0H30ZM750.5 183C765.136 183 777 171.136 777 156.5C777 141.864 765.136 130 750.5 130C735.864 130 724 141.864 724 156.5C724 171.136 735.864 183 750.5 183Z" fill="white"/>
<path d="M767.754 117.681L779.701 128.799C779.512 129.001 779.524 129.318 779.726 129.506L786.065 135.406C789.138 138.267 791.458 141.618 793.024 145.22C793.133 145.472 793.425 145.588 793.678 145.481C796.73 152.835 796.73 161.165 793.678 168.519C793.425 168.412 793.133 168.528 793.024 168.78C791.458 172.382 789.138 175.733 786.065 178.594L779.726 184.494C779.524 184.682 779.512 184.999 779.701 185.201L767.754 196.319C767.566 196.117 767.25 196.106 767.048 196.294L754.37 208.094C754.167 208.282 754.156 208.599 754.344 208.801L742.398 219.919C742.21 219.717 741.893 219.706 741.691 219.894L729.013 231.694C728.811 231.882 728.8 232.199 728.988 232.401L717.042 243.519C716.854 243.317 716.537 243.306 716.335 243.494L703.657 255.294C703.455 255.482 703.443 255.799 703.631 256.001L691.685 267.119C691.497 266.917 691.181 266.906 690.979 267.094L678.301 278.894C678.098 279.082 678.087 279.399 678.275 279.601L666.329 290.719C666.141 290.517 665.824 290.506 665.622 290.694L659.283 296.594C657.924 297.859 656.459 298.984 654.909 299.96C654.676 300.107 654.606 300.413 654.75 300.646C651.824 302.422 648.615 303.684 645.264 304.378C645.211 304.109 644.95 303.932 644.68 303.984C642.881 304.325 641.041 304.5 639.185 304.5H630.403C630.127 304.5 629.903 304.724 629.903 305H613.339C613.339 304.724 613.115 304.5 612.839 304.5H595.274C594.998 304.5 594.774 304.724 594.774 305H578.21C578.21 304.724 577.986 304.5 577.71 304.5H560.146C559.87 304.5 559.646 304.724 559.646 305H543.082C543.082 304.724 542.858 304.5 542.582 304.5H525.017C524.741 304.5 524.517 304.724 524.517 305H507.953C507.953 304.724 507.729 304.5 507.453 304.5H489.889C489.613 304.5 489.389 304.724 489.389 305H472.824C472.824 304.724 472.601 304.5 472.324 304.5H454.76C454.484 304.5 454.26 304.724 454.26 305H437.696C437.696 304.724 437.472 304.5 437.196 304.5H419.632C419.355 304.5 419.132 304.724 419.132 305H402.567C402.567 304.724 402.343 304.5 402.067 304.5H384.503C384.227 304.5 384.003 304.724 384.003 305H367.439C367.439 304.724 367.215 304.5 366.939 304.5H349.375C349.098 304.5 348.875 304.724 348.875 305H332.31C332.31 304.724 332.086 304.5 331.81 304.5H314.246C313.97 304.5 313.746 304.724 313.746 305H297.182C297.182 304.724 296.958 304.5 296.682 304.5H279.117C278.841 304.5 278.617 304.724 278.617 305H262.053C262.053 304.724 261.829 304.5 261.553 304.5H243.989C243.713 304.5 243.489 304.724 243.489 305H226.925C226.925 304.724 226.701 304.5 226.425 304.5H208.86C208.584 304.5 208.36 304.724 208.36 305H191.796C191.796 304.724 191.572 304.5 191.296 304.5H173.732C173.456 304.5 173.232 304.724 173.232 305H156.668C156.668 304.724 156.444 304.5 156.168 304.5H138.603C138.327 304.5 138.103 304.724 138.103 305H121.539C121.539 304.724 121.315 304.5 121.039 304.5H103.475C103.199 304.5 102.975 304.724 102.975 305H86.4106C86.4106 304.724 86.1868 304.5 85.9106 304.5H68.3464C68.0702 304.5 67.8464 304.724 67.8464 305H51.2821C51.2821 304.724 51.0583 304.5 50.7821 304.5H42C37.9991 304.5 34.1855 303.704 30.7079 302.262C30.4541 302.156 30.1632 302.276 30.0561 302.528C23.0907 299.502 17.4981 293.909 14.4718 286.944C14.7242 286.837 14.8435 286.546 14.7383 286.292C13.2962 282.815 12.5 279.001 12.5 275V266.571C12.5 266.295 12.2761 266.071 12 266.071V250.214C12.2761 250.214 12.5 249.99 12.5 249.714V232.857C12.5 232.581 12.2761 232.357 12 232.357V216.5C12.2761 216.5 12.5 216.276 12.5 216V199.143C12.5 198.867 12.2761 198.643 12 198.643V182.786C12.2761 182.786 12.5 182.562 12.5 182.286V165.429C12.5 165.152 12.2761 164.929 12 164.929V149.071C12.2761 149.071 12.5 148.848 12.5 148.571V131.714C12.5 131.438 12.2761 131.214 12 131.214V115.357C12.2761 115.357 12.5 115.133 12.5 114.857V98C12.5 97.7239 12.2761 97.5 12 97.5V81.6429C12.2761 81.6429 12.5 81.419 12.5 81.1429V64.2857C12.5 64.0096 12.2761 63.7857 12 63.7857V47.9286C12.2761 47.9286 12.5 47.7047 12.5 47.4286V39C12.5 34.9991 13.2962 31.1855 14.7383 27.7079C14.8435 27.4541 14.7242 27.1632 14.4718 27.0561C17.4981 20.0907 23.0907 14.4981 30.0561 11.4718C30.1632 11.7242 30.4541 11.8435 30.7079 11.7383C34.1855 10.2962 37.9991 9.5 42 9.5H50.782C51.0581 9.5 51.282 9.27614 51.282 9H67.8462C67.8462 9.27614 68.0701 9.5 68.3462 9.5H85.9105C86.1867 9.5 86.4105 9.27614 86.4105 9H102.975C102.975 9.27614 103.199 9.5 103.475 9.5H121.039C121.315 9.5 121.539 9.27614 121.539 9H138.103C138.103 9.27614 138.327 9.5 138.603 9.5H156.168C156.444 9.5 156.668 9.27614 156.668 9H173.232C173.232 9.27614 173.456 9.5 173.732 9.5H191.296C191.572 9.5 191.796 9.27614 191.796 9H208.36C208.36 9.27614 208.584 9.5 208.86 9.5H226.425C226.701 9.5 226.925 9.27614 226.925 9H243.489C243.489 9.27614 243.713 9.5 243.989 9.5H261.553C261.829 9.5 262.053 9.27614 262.053 9H278.617C278.617 9.27614 278.841 9.5 279.117 9.5H296.682C296.958 9.5 297.182 9.27614 297.182 9H313.746C313.746 9.27614 313.97 9.5 314.246 9.5H331.81C332.086 9.5 332.31 9.27614 332.31 9H348.875C348.875 9.27614 349.098 9.5 349.375 9.5H366.939C367.215 9.5 367.439 9.27614 367.439 9H384.003C384.003 9.27614 384.227 9.5 384.503 9.5H402.067C402.343 9.5 402.567 9.27614 402.567 9H419.132C419.132 9.27614 419.355 9.5 419.632 9.5H437.196C437.472 9.5 437.696 9.27614 437.696 9H454.26C454.26 9.27614 454.484 9.5 454.76 9.5H472.324C472.601 9.5 472.824 9.27614 472.824 9H489.389C489.389 9.27614 489.613 9.5 489.889 9.5H507.453C507.729 9.5 507.953 9.27614 507.953 9H524.517C524.517 9.27614 524.741 9.5 525.017 9.5H542.581C542.858 9.5 543.081 9.27614 543.081 9H559.646C559.646 9.27614 559.87 9.5 560.146 9.5H577.71C577.986 9.5 578.21 9.27614 578.21 9H594.774C594.774 9.27614 594.998 9.5 595.274 9.5H612.839C613.115 9.5 613.339 9.27614 613.339 9H629.903C629.903 9.27614 630.127 9.5 630.403 9.5H639.185C641.041 9.5 642.881 9.67503 644.68 10.0163C644.95 10.0675 645.211 9.89131 645.264 9.62231C648.615 10.3159 651.824 11.5781 654.75 13.3537C654.606 13.5869 654.676 13.8933 654.909 14.0397C656.459 15.0161 657.924 16.1411 659.283 17.4059L665.622 23.3059C665.824 23.494 666.141 23.4827 666.329 23.2805L678.275 34.3992C678.087 34.6014 678.098 34.9178 678.301 35.1059L690.979 46.9059C691.181 47.094 691.497 47.0827 691.685 46.8805L703.631 57.9992C703.443 58.2014 703.455 58.5177 703.657 58.7059L716.335 70.5059C716.537 70.694 716.854 70.6827 717.042 70.4805L728.988 81.5992C728.8 81.8014 728.811 82.1177 729.013 82.3059L741.691 94.1059C741.893 94.294 742.21 94.2827 742.398 94.0805L754.344 105.199C754.156 105.401 754.167 105.718 754.37 105.906L767.048 117.706C767.25 117.894 767.566 117.883 767.754 117.681Z" stroke="black" stroke-linecap="round" stroke-dasharray="18 18"/>
<circle cx="750.5" cy="156.5" r="31" stroke="black" stroke-dasharray="12 12"/>
</svg>
